<?xml version="1.0" encoding="UTF-8" standalone="no"?>
<!DOCTYPE svg PUBLIC "-//W3C//DTD SVG 1.1//EN" "http://www.w3.org/Graphics/SVG/1.1/DTD/svg11.dtd">
<svg width="100%" height="100%" viewBox="0 0 2000 2000" version="1.1" xmlns="http://www.w3.org/2000/svg" xmlns:xlink="http://www.w3.org/1999/xlink" xml:space="preserve" xmlns:serif="http://www.serif.com/" style="fill-rule:evenodd;clip-rule:evenodd;stroke-linejoin:round;stroke-miterlimit:2;">
    <g id="layer1" transform="matrix(2.83465,0,0,2.83465,-197.764,4075.83)">
        <path id="path1" d="M362.688,-849.652C360.471,-852.043 355.8,-857.135 352.307,-860.968L345.957,-867.936L345.922,-888.525C345.903,-899.848 345.998,-909.292 346.134,-909.512C346.36,-909.877 349.118,-906.89 359.14,-895.426C360.764,-893.568 363.103,-891.016 364.338,-889.753L366.583,-887.457L366.704,-866.382C366.771,-854.79 366.801,-845.306 366.772,-845.306C366.743,-845.306 364.905,-847.262 362.688,-849.652L362.688,-849.652ZM481.508,-845.869C481.365,-846.012 481.248,-855.317 481.248,-866.547L481.248,-886.965L485.569,-891.759C487.946,-894.396 490.446,-897.214 491.125,-898.021C491.805,-898.828 494.027,-901.368 496.064,-903.665C498.102,-905.963 500.269,-908.408 500.88,-909.099L501.992,-910.356L502.131,-908.081C502.208,-906.831 502.263,-897.294 502.254,-886.89L502.238,-867.973L493.419,-858.316C481.421,-845.18 481.8,-845.577 481.508,-845.869L481.508,-845.869ZM401.873,-858.359C399.926,-861.269 398.376,-863.668 398.427,-863.69C398.852,-863.872 450.211,-863.866 450.131,-863.68C450.074,-863.55 448.45,-861.107 446.523,-858.253L443.02,-853.063L405.412,-853.063L401.873,-858.359ZM384.365,-880.107C381.091,-883.919 378.135,-887.393 377.796,-887.827C377.225,-888.557 377.177,-890.145 377.156,-909.03C377.144,-920.257 377.146,-932.698 377.156,-936.675L377.183,-943.907L381.852,-950.65C384.421,-954.359 389.3,-961.4 392.695,-966.296L398.869,-975.198L399.053,-946.852L396.995,-944.314C395.863,-942.918 393.599,-940.13 391.964,-938.118C390.329,-936.107 388.383,-933.701 387.641,-932.772L386.291,-931.084L386.29,-916.682C386.29,-908.76 386.302,-901.229 386.317,-899.945L386.345,-897.61L391.019,-892.405C393.59,-889.541 396.442,-886.385 397.357,-885.39L399.021,-883.582L399.045,-873.175L390.312,-873.175L384.365,-880.107ZM404.326,-879.66C404.316,-883.175 404.3,-889.287 404.288,-893.24L404.266,-900.429L401.515,-903.471C400.002,-905.144 397.001,-908.258 394.846,-910.391L390.929,-914.269L390.964,-921.873L390.999,-929.476L396.877,-936.49L402.754,-943.503L445.255,-943.557L451.257,-936.371L457.258,-929.185L457.235,-914.273L450.72,-907.578L444.206,-900.883L444.206,-873.607L443.059,-873.428C442.429,-873.329 433.459,-873.253 423.127,-873.258L404.342,-873.268L404.326,-879.66ZM449.163,-878.643L449.182,-883.935L455.013,-890.285C458.22,-893.777 461.105,-897.019 461.425,-897.489C461.938,-898.245 462.02,-900.221 462.13,-914.599L462.254,-930.854L459.315,-934.348C457.699,-936.27 455.879,-938.492 455.271,-939.287C454.663,-940.082 453.036,-942.082 451.656,-943.731L449.146,-946.729L449.153,-961.017C449.16,-975.273 449.162,-975.302 449.852,-974.422C450.232,-973.937 450.468,-973.334 450.377,-973.081C450.286,-972.829 450.361,-972.714 450.543,-972.827C450.726,-972.94 451.826,-971.639 452.987,-969.935C454.147,-968.232 457.4,-963.504 460.214,-959.429C463.028,-955.355 466.597,-950.165 468.146,-947.897L470.961,-943.773L470.9,-916.087L470.84,-888.401L469.958,-887.403C469.473,-886.854 468.362,-885.604 467.489,-884.626C466.616,-883.648 464.155,-880.756 462.021,-878.199C458.665,-874.178 457.997,-873.546 457.082,-873.525C456.5,-873.512 454.476,-873.467 452.584,-873.426L449.144,-873.352L449.163,-878.643ZM507.347,-880.67C507.344,-884.6 507.304,-913.252 507.259,-944.34L507.177,-1000.87L507.931,-1000.08C509.692,-998.245 516.861,-990.261 518.052,-988.808L519.348,-987.226L519.346,-887.11L517.142,-884.6C515.93,-883.22 513.232,-880.163 511.147,-877.807L507.354,-873.524L507.347,-880.67ZM336.609,-877.983C334.572,-880.217 331.992,-883.094 330.876,-884.376L328.848,-886.706L328.878,-987.652L333.143,-992.414C335.489,-995.033 338.181,-998.023 339.125,-999.057L340.842,-1000.94L340.861,-989.532C340.951,-934.735 340.805,-874.049 340.584,-873.992C340.435,-873.954 338.646,-875.75 336.609,-877.983L336.609,-877.983ZM323.556,-892.049C323.556,-892.146 323.635,-892.225 323.732,-892.225C323.829,-892.225 323.909,-892.146 323.909,-892.049C323.909,-891.952 323.83,-891.872 323.732,-891.872C323.635,-891.872 323.556,-891.951 323.556,-892.049ZM523.936,-940.454L523.929,-989.035L523.078,-990.284C522.61,-990.97 520.298,-993.675 517.94,-996.295C515.582,-998.914 512.235,-1002.69 510.503,-1004.68L507.354,-1008.3L507.354,-1020.11C507.354,-1026.61 507.398,-1031.92 507.453,-1031.92C507.586,-1031.92 519.043,-1019.16 527.237,-1009.88L533.779,-1002.47L533.796,-952.604L533.812,-902.74L531.783,-900.525C530.668,-899.307 528.564,-896.872 527.109,-895.113C525.654,-893.355 524.346,-891.906 524.204,-891.894C524.061,-891.882 523.941,-913.734 523.937,-940.454L523.936,-940.454ZM320.557,-895.832C319.005,-897.618 316.981,-899.894 316.06,-900.89L314.384,-902.7L314.384,-1002.47L323.289,-1012.57C339.202,-1030.63 340.305,-1031.87 340.573,-1031.9C340.719,-1031.91 340.85,-1029.5 340.865,-1026.55C340.88,-1023.59 340.921,-1018.25 340.958,-1014.69L341.024,-1008.21L335.728,-1002.41C329.118,-995.169 326.286,-991.919 325.052,-990.156L324.089,-988.781L324.066,-944.472C324.041,-895.266 324.019,-892.577 323.641,-892.581C323.495,-892.581 322.106,-894.046 320.554,-895.832L320.557,-895.832ZM481.248,-894.881L481.248,-943.089L482.394,-944.41C483.025,-945.136 485.208,-947.594 487.245,-949.872C489.282,-952.15 491.723,-954.914 492.669,-956.016C493.616,-957.117 495.044,-958.741 495.844,-959.625C496.644,-960.509 498.322,-962.449 499.573,-963.937C500.823,-965.424 501.901,-966.586 501.968,-966.52C502.035,-966.453 502.096,-955.426 502.104,-942.015C502.116,-922.17 502.032,-917.545 501.649,-917.162C501.391,-916.903 498.957,-914.249 496.241,-911.264C493.524,-908.279 490.03,-904.481 488.475,-902.823C486.919,-901.166 484.657,-898.701 483.447,-897.345L481.248,-894.881ZM365.522,-896.382C364.395,-897.689 357.461,-905.24 352.657,-910.393C350.486,-912.722 348.053,-915.341 347.251,-916.214L345.792,-917.802L345.821,-942.231C345.837,-955.668 345.89,-966.661 345.939,-966.661C345.988,-966.661 347.362,-965.127 348.991,-963.251C350.621,-961.375 354.812,-956.587 358.305,-952.611C361.797,-948.635 365.131,-944.817 365.713,-944.128L366.772,-942.874L366.821,-919.31C366.848,-906.35 366.753,-895.674 366.609,-895.585C366.466,-895.496 365.977,-895.855 365.522,-896.382L365.522,-896.382ZM403.999,-997.529L403.999,-1046.04L444.207,-1046.04L444.207,-949.022L404.002,-949.022L403.999,-997.529ZM370.985,-956.127C367.288,-960.305 363.485,-964.675 355.913,-973.448L351.425,-978.647L351.425,-994.703C351.425,-1005.17 351.548,-1010.76 351.778,-1010.76C351.972,-1010.76 352.136,-1010.64 352.143,-1010.49C352.153,-1010.35 352.957,-1009.36 353.938,-1008.29C355.616,-1006.46 374.317,-985.258 376.685,-982.496C377.737,-981.268 377.768,-981.142 377.492,-979.144C377.334,-978.002 376.96,-974.766 376.66,-971.953C376.361,-969.14 376.051,-966.441 375.972,-965.956C375.893,-965.471 375.732,-963.963 375.613,-962.604C375.255,-958.503 374.972,-955.641 374.746,-953.834L374.532,-952.119L370.985,-956.127ZM473.356,-954.049C473.112,-955.794 471.156,-974.723 470.806,-978.737L470.568,-981.464L471.922,-983.147C472.666,-984.072 474.649,-986.337 476.328,-988.181C478.008,-990.024 480.635,-992.987 482.167,-994.766C487.02,-1000.4 496.502,-1011.11 496.639,-1011.11C496.711,-1011.11 496.77,-1003.82 496.77,-994.906L496.77,-978.701L494.263,-975.768C490.049,-970.836 488.257,-968.774 484.952,-965.049C478.767,-958.08 473.776,-952.55 473.672,-952.55C473.614,-952.55 473.472,-953.225 473.356,-954.049ZM464.404,-962.869C463.076,-964.664 460.886,-967.718 459.536,-969.655C458.187,-971.593 456.636,-973.816 456.091,-974.594C455.546,-975.373 453.759,-977.998 452.12,-980.429L449.14,-984.848L449.231,-1011.43L449.321,-1038.01L451.425,-1035.06C452.582,-1033.43 454.8,-1030.37 456.353,-1028.24L459.177,-1024.39L459.803,-1019.6C461.841,-1004 462.596,-997.822 463.256,-991.356C463.661,-987.378 464.301,-981.822 464.678,-979.009C465.055,-976.195 465.683,-971.036 466.075,-967.543C466.467,-964.051 466.857,-960.836 466.942,-960.399C467.027,-959.963 467.034,-959.606 466.957,-959.606C466.881,-959.606 465.732,-961.074 464.404,-962.869L464.404,-962.869ZM381.542,-961.193C381.654,-961.969 381.83,-963.398 381.934,-964.368C382.037,-965.338 382.435,-969.069 382.816,-972.659C383.198,-976.248 383.911,-982.519 384.401,-986.593C384.891,-990.668 385.613,-996.7 386.005,-999.999C387.695,-1014.21 388.18,-1018.17 388.593,-1021.17L389.032,-1024.34L393.337,-1030.34C395.705,-1033.64 397.955,-1036.73 398.338,-1037.22C399.033,-1038.1 399.035,-1038.04 399.043,-1011.34L399.053,-984.579L398.053,-983.117C393.612,-976.617 382.306,-960.727 381.701,-960.135C381.457,-959.895 381.406,-960.235 381.544,-961.193L381.542,-961.193ZM394.112,-978.127C394.112,-978.224 394.033,-978.303 393.935,-978.303C393.838,-978.303 393.759,-978.224 393.759,-978.127C393.759,-978.03 393.838,-977.95 393.935,-977.95C394.032,-977.95 394.112,-978.029 394.112,-978.127ZM374.341,-992.991C372.312,-995.271 368.747,-999.301 366.419,-1001.95C362.063,-1006.9 358.921,-1010.4 354.16,-1015.61L351.425,-1018.6L351.425,-1043.25L357.423,-1043.12L357.423,-1033.11C357.423,-1027.61 357.542,-1023.09 357.687,-1023.06C358.735,-1022.88 361.359,-1022.82 370.707,-1022.79L381.345,-1022.75L381.187,-1019.84C381.1,-1018.24 380.868,-1015.35 380.672,-1013.4C380.475,-1011.46 380.244,-1009.16 380.158,-1008.29C380.072,-1007.42 379.755,-1004.24 379.453,-1001.23C379.151,-998.226 378.811,-994.495 378.697,-992.943C378.358,-988.323 378.497,-988.321 374.341,-992.991L374.341,-992.991ZM469.934,-989.063C469.833,-989.724 469.615,-991.882 469.062,-997.706C468.759,-1000.91 468.365,-1005.03 468.188,-1006.88C468.011,-1008.72 467.703,-1012.53 467.504,-1015.35C467.304,-1018.16 467.071,-1020.97 466.985,-1021.6L466.83,-1022.74L490.596,-1022.93L490.69,-1033.07L490.784,-1043.21L496.77,-1043.21L496.795,-1037.04C496.828,-1029.08 496.827,-1028.54 496.784,-1023.19L496.748,-1018.7L492.873,-1014.52C489.446,-1010.83 480.906,-1001.2 474.678,-994.023C470.817,-989.57 469.989,-988.705 469.934,-989.063L469.934,-989.063ZM364.478,-1036.79L364.478,-1043.23L370.387,-1043.13C373.637,-1043.08 376.257,-1042.92 376.208,-1042.77C376.16,-1042.63 376.12,-1039.82 376.12,-1036.53L376.12,-1030.55L370.299,-1030.44L364.478,-1030.34L364.478,-1036.79ZM471.723,-1030.52L471.723,-1043.21L483.364,-1043.21L483.364,-1030.52L471.723,-1030.52ZM387.915,-1036.43C387.514,-1036.77 385.927,-1038.39 384.387,-1040.05C377.822,-1047.11 376.874,-1048.14 374.39,-1050.9L371.778,-1053.8L351.425,-1053.8L351.425,-1068.44L354.456,-1071.53L357.487,-1074.61L381.006,-1074.61L384.447,-1070.29C386.339,-1067.91 388.633,-1065.02 389.545,-1063.85C390.456,-1062.69 392.887,-1059.63 394.947,-1057.06L398.692,-1052.39L398.692,-1049.63C398.692,-1047.1 398.614,-1046.79 397.765,-1046.01C397.256,-1045.54 395.028,-1043.05 392.815,-1040.48C390.602,-1037.91 388.757,-1035.81 388.715,-1035.81C388.673,-1035.81 388.31,-1036.1 387.909,-1036.43L387.915,-1036.43ZM454.193,-1041.79L449.284,-1047.42L449.321,-1052.56L454.791,-1059.27C457.799,-1062.95 461.767,-1067.91 463.61,-1070.27L466.96,-1074.58L490.714,-1074.61L493.742,-1071.37L496.77,-1068.12L496.77,-1053.8L486.693,-1053.8C480.772,-1053.8 476.348,-1053.65 475.968,-1053.45C475.612,-1053.26 474.656,-1052.27 473.843,-1051.25C472.074,-1049.02 459.726,-1036.16 459.359,-1036.16C459.218,-1036.16 456.893,-1038.69 454.193,-1041.79L454.193,-1041.79ZM304.135,-1049.91C302.866,-1050.1 301.649,-1051.29 295.863,-1058.01C294.893,-1059.14 291.612,-1062.82 288.571,-1066.19C285.531,-1069.56 281.363,-1074.22 279.309,-1076.55L275.576,-1080.79L293.595,-1080.88C303.506,-1080.93 319.66,-1080.93 329.492,-1080.88L347.369,-1080.79L345.065,-1078.32C343.799,-1076.96 342.33,-1075.28 341.802,-1074.58L340.842,-1073.31L340.842,-1058.21L337.759,-1061.38C336.064,-1063.13 332.854,-1066.58 330.626,-1069.06L326.576,-1073.55L311.333,-1073.55C302.95,-1073.55 296.01,-1073.42 295.912,-1073.26C295.813,-1073.1 296.003,-1072.73 296.332,-1072.44C296.661,-1072.15 297.4,-1071.37 297.974,-1070.7C300.946,-1067.27 308.602,-1058.79 309.497,-1057.94L310.524,-1056.97L334.102,-1056.97L335.32,-1055.47C336.927,-1053.5 338.735,-1050.61 338.735,-1050.01C338.735,-1049.62 335.812,-1049.55 322.066,-1049.63C312.899,-1049.68 304.834,-1049.8 304.145,-1049.91L304.135,-1049.91ZM509.117,-1049.79C509.117,-1050.16 511.701,-1054.37 512.715,-1055.65L513.763,-1056.97L537.582,-1056.97L539.133,-1058.83C539.986,-1059.84 541.559,-1061.63 542.628,-1062.8C543.697,-1063.97 545.921,-1066.42 547.57,-1068.25C549.219,-1070.08 550.926,-1071.95 551.362,-1072.41C551.799,-1072.86 552.156,-1073.31 552.156,-1073.39C552.156,-1073.48 545.258,-1073.55 536.826,-1073.55L521.496,-1073.55L520.687,-1072.74C520.241,-1072.29 519.004,-1070.91 517.937,-1069.66C516.869,-1068.41 515.033,-1066.36 513.857,-1065.09C509.6,-1060.52 508.586,-1059.38 508.47,-1059.06C508.406,-1058.88 508.128,-1058.74 507.853,-1058.74C507.438,-1058.74 507.353,-1059.98 507.353,-1066.06L507.353,-1073.39L504.359,-1076.85C502.713,-1078.75 501.276,-1080.45 501.167,-1080.63C501.05,-1080.82 515.4,-1080.95 536.663,-1080.96C570.677,-1080.97 572.333,-1080.94 571.869,-1080.35C571.602,-1080.01 571.296,-1079.65 571.189,-1079.55C571.083,-1079.45 569.266,-1077.39 567.151,-1074.96C565.036,-1072.54 562.583,-1069.76 561.7,-1068.78C560.816,-1067.8 559.062,-1065.82 557.8,-1064.37C556.539,-1062.92 554.476,-1060.62 553.214,-1059.25C551.953,-1057.89 549.493,-1055.15 547.746,-1053.17L544.571,-1049.56L526.844,-1049.59C517.094,-1049.6 509.117,-1049.69 509.117,-1049.79L509.117,-1049.79ZM402.951,-1054.68C401.848,-1055.89 388.031,-1073.22 385.652,-1076.38C384.409,-1078.03 383.224,-1079.49 383.019,-1079.64C382.814,-1079.79 378.003,-1079.86 372.327,-1079.82C366.652,-1079.77 362.048,-1079.83 362.097,-1079.94C362.146,-1080.06 365.502,-1083.89 369.557,-1088.46C374.841,-1094.42 377.189,-1096.82 377.847,-1096.94C379.06,-1097.16 400.003,-1097.06 400.211,-1096.84C400.56,-1096.45 406.286,-1089.09 408.305,-1086.43C409.482,-1084.88 410.929,-1083.09 411.52,-1082.46L412.594,-1081.31L420.866,-1081.31L420.932,-1053.76L412.263,-1053.87C404.117,-1053.97 403.555,-1054.02 402.951,-1054.68L402.951,-1054.68ZM427.273,-1053.79L427.273,-1081.32L431.492,-1081.32C436.227,-1081.32 436.087,-1081.25 438.303,-1084.49C439.249,-1085.87 440.003,-1086.84 442.849,-1090.31C443.17,-1090.7 444.559,-1092.39 445.935,-1094.08L448.437,-1097.13L470.949,-1097.15L475.128,-1092.37C477.427,-1089.74 480.762,-1085.89 482.541,-1083.83L485.774,-1080.09L465.437,-1079.9L464.434,-1078.72C463.883,-1078.07 462.48,-1076.3 461.316,-1074.77C460.152,-1073.25 457.612,-1070.07 455.671,-1067.7C453.731,-1065.34 450.451,-1061.26 448.381,-1058.64L444.619,-1053.89L427.273,-1053.79ZM167.73,-1059.18C165.395,-1061.75 159.638,-1068.14 154.937,-1073.38C150.236,-1078.62 144.534,-1084.97 142.265,-1087.49C139.996,-1090.01 136.905,-1093.46 135.395,-1095.16L132.651,-1098.25L136.469,-1098.29C138.57,-1098.31 141.873,-1098.36 143.809,-1098.39C147.133,-1098.44 147.383,-1098.4 148.262,-1097.55C149.535,-1096.33 153.73,-1091.73 159.514,-1085.2C160.97,-1083.56 162.617,-1081.74 163.176,-1081.15C163.734,-1080.56 166.408,-1077.58 169.118,-1074.52L174.045,-1068.97L216.615,-1068.97L219.726,-1072.38C221.438,-1074.26 224.822,-1077.96 227.248,-1080.6C231.558,-1085.29 235.546,-1089.72 237.784,-1092.3L238.9,-1093.59L235.632,-1093.75C233.834,-1093.83 223.79,-1093.93 213.313,-1093.96L194.263,-1094.01L193.423,-1094.98C192.961,-1095.52 191.437,-1097.23 190.036,-1098.78C183.012,-1106.56 179.337,-1110.9 179.556,-1111.14C179.69,-1111.29 179.609,-1111.3 179.376,-1111.17C178.926,-1110.91 177.257,-1112.89 177.427,-1113.49C177.48,-1113.67 177.384,-1113.74 177.213,-1113.63C177.042,-1113.52 175.49,-1115.06 173.764,-1117.03C172.039,-1119.01 169.745,-1121.59 168.668,-1122.76C167.591,-1123.92 166.083,-1125.61 165.317,-1126.49C163.419,-1128.68 150.634,-1143.03 146.287,-1147.84C144.346,-1149.99 142.35,-1152.21 141.852,-1152.79C140.091,-1154.82 135.728,-1159.76 134.933,-1160.61C134.49,-1161.09 134.229,-1161.65 134.352,-1161.85C134.475,-1162.05 134.406,-1162.1 134.198,-1161.98C133.988,-1161.85 132.826,-1162.89 131.586,-1164.33C130.357,-1165.75 127.347,-1169.12 124.896,-1171.83C116.92,-1180.62 102.951,-1196.1 100.524,-1198.83L98.154,-1201.49L98.177,-1236.48C98.19,-1255.72 98.318,-1271.46 98.461,-1271.46C98.73,-1271.46 106.197,-1263.13 110.95,-1257.53L113.643,-1254.35L113.653,-1234.53C113.653,-1219.17 113.757,-1214.61 114.099,-1214.25C114.341,-1213.99 115.572,-1212.59 116.833,-1211.14C119.121,-1208.5 130.041,-1196.18 130.828,-1195.35C131.057,-1195.11 134.312,-1191.39 138.061,-1187.08C141.811,-1182.77 145.672,-1178.36 146.643,-1177.27C147.613,-1176.18 149.835,-1173.64 151.581,-1171.64C153.328,-1169.63 156.741,-1165.75 159.166,-1163C161.592,-1160.26 164.528,-1156.91 165.693,-1155.57C166.857,-1154.22 168.537,-1152.32 169.426,-1151.35C171.496,-1149.08 188.088,-1130.08 191.798,-1125.72C198.306,-1118.09 204.39,-1111.29 205.008,-1110.96C205.442,-1110.73 212.239,-1110.67 224.708,-1110.81L243.746,-1111.02L247.582,-1106.67C249.691,-1104.29 252.583,-1101.06 254.008,-1099.5C255.432,-1097.94 256.746,-1096.39 256.928,-1096.05C257.294,-1095.37 256.338,-1094.22 246.304,-1083.25C243.285,-1079.96 238.279,-1074.4 235.18,-1070.92C232.081,-1067.43 229.307,-1064.32 229.016,-1064.01C228.725,-1063.69 226.741,-1061.44 224.606,-1058.99L220.726,-1054.55L196.353,-1054.53L171.98,-1054.5L167.73,-1059.18ZM228.372,-1055.87C229.015,-1056.56 229.624,-1057.22 229.725,-1057.32C229.826,-1057.42 231.645,-1059.49 233.767,-1061.91C235.889,-1064.34 239.061,-1067.91 240.815,-1069.84C242.569,-1071.78 244.56,-1074 245.239,-1074.77C245.918,-1075.54 247.273,-1077.06 248.25,-1078.13C249.227,-1079.2 251.933,-1082.22 254.264,-1084.84C262.741,-1094.37 265.219,-1097.14 271.323,-1103.89C274.741,-1107.68 280.043,-1113.59 283.103,-1117.03C286.164,-1120.48 288.714,-1123.3 288.771,-1123.3C288.828,-1123.3 291.395,-1120.52 294.477,-1117.12L300.08,-1110.95L302.029,-1110.95C303.1,-1110.95 319.177,-1110.95 337.755,-1110.95L371.534,-1110.96L371.534,-1109.39C371.534,-1107.86 371.409,-1107.69 365.149,-1100.8L358.764,-1093.77L268.547,-1093.63L266.456,-1091.44C265.306,-1090.24 262.323,-1086.93 259.829,-1084.09C253.006,-1076.32 244.323,-1066.66 238.39,-1060.22L233.088,-1054.47L227.203,-1054.6L228.372,-1055.87ZM613.492,-1055.65C612.202,-1057.04 606.768,-1063.06 599.096,-1071.61C587.426,-1084.62 582.567,-1090.01 580.878,-1091.82L579.144,-1093.69L489.311,-1093.84L487.866,-1095.43C487.071,-1096.3 485.451,-1098.05 484.267,-1099.31C477.362,-1106.66 476.288,-1108 476.377,-1109.17C476.424,-1109.79 476.627,-1110.4 476.827,-1110.53C477.252,-1110.81 484.024,-1110.87 520.992,-1110.91L548.212,-1110.95L550.527,-1113.68C551.8,-1115.19 554.122,-1117.92 555.686,-1119.77C557.251,-1121.61 558.725,-1123.12 558.963,-1123.12C559.34,-1123.12 563.193,-1119.05 567.475,-1114.12C568.234,-1113.25 571.581,-1109.52 574.913,-1105.83C578.244,-1102.15 582.615,-1097.23 584.626,-1094.9C589.886,-1088.81 597.73,-1079.96 603.849,-1073.22C609.572,-1066.92 618.605,-1056.7 619.654,-1055.34L620.301,-1054.5L617.429,-1054.5C614.644,-1054.5 614.526,-1054.54 613.492,-1055.65ZM622.296,-1060.09C619.517,-1063.16 614.767,-1068.44 611.74,-1071.82C608.714,-1075.2 604.269,-1080.16 601.863,-1082.84C599.457,-1085.53 595.951,-1089.51 594.072,-1091.7L590.656,-1095.68L593.543,-1099.04C600.955,-1107.68 602.77,-1109.76 603.385,-1110.31C603.993,-1110.86 605.537,-1110.91 621.978,-1110.84C631.84,-1110.79 640.281,-1110.85 640.736,-1110.96C641.213,-1111.07 643.063,-1112.88 645.102,-1115.23C649.77,-1120.61 663.272,-1136.09 671.209,-1145.16C674.697,-1149.14 677.872,-1152.78 678.265,-1153.25C679.897,-1155.18 686.095,-1162.33 692.209,-1169.33C695.798,-1173.45 700.64,-1179.01 702.969,-1181.7C705.297,-1184.38 709.031,-1188.65 711.266,-1191.19C713.502,-1193.72 717.618,-1198.41 720.415,-1201.61C723.211,-1204.81 726.382,-1208.39 727.463,-1209.56C728.543,-1210.73 729.982,-1212.31 730.662,-1213.09L731.896,-1214.49L731.701,-1254.11L733.677,-1256.44C734.783,-1257.75 735.82,-1258.67 736.034,-1258.54C736.27,-1258.39 736.312,-1258.47 736.144,-1258.74C735.847,-1259.22 738.261,-1261.94 738.984,-1261.94C739.214,-1261.94 739.381,-1262.15 739.354,-1262.42C739.299,-1262.95 746.519,-1271.6 746.791,-1271.33C746.884,-1271.23 746.948,-1255.34 746.933,-1236.01L746.907,-1200.86L744.526,-1198.15C743.217,-1196.66 740.629,-1193.77 738.775,-1191.73C734.941,-1187.52 724.726,-1176.1 720.783,-1171.63C719.331,-1169.98 717.332,-1167.75 716.34,-1166.69C715.349,-1165.62 713.919,-1164.03 713.163,-1163.16C712.407,-1162.29 711.055,-1160.78 710.159,-1159.81C709.262,-1158.84 707.992,-1157.41 707.336,-1156.63C706.68,-1155.86 702.651,-1151.33 698.382,-1146.57C694.114,-1141.81 689.511,-1136.65 688.155,-1135.1C686.798,-1133.56 684.1,-1130.54 682.158,-1128.41C680.216,-1126.27 677.674,-1123.43 676.51,-1122.08C672.367,-1117.3 671.279,-1116.06 671.047,-1115.89C670.918,-1115.79 669.64,-1114.36 668.205,-1112.71C666.771,-1111.06 665.493,-1109.63 665.365,-1109.54C665.237,-1109.44 663.803,-1107.84 662.178,-1105.98C660.553,-1104.11 657.481,-1100.66 655.351,-1098.3L651.477,-1094.02L631.715,-1093.96C620.845,-1093.92 611.277,-1093.9 610.452,-1093.91C609.628,-1093.91 608.953,-1093.84 608.953,-1093.74C608.953,-1093.46 611.276,-1090.69 613.859,-1087.88C615.138,-1086.49 619.041,-1082.18 622.533,-1078.3C626.024,-1074.43 629.381,-1070.75 629.994,-1070.11L631.108,-1068.97L671.673,-1068.97L674.264,-1071.88C675.689,-1073.48 678.603,-1076.71 680.74,-1079.05C684.374,-1083.04 690.342,-1089.69 693.969,-1093.81C694.839,-1094.79 696.208,-1096.28 697.009,-1097.1L698.466,-1098.6L713.082,-1098.6L711.922,-1097.14C711.285,-1096.33 709.247,-1094 707.395,-1091.96C705.542,-1089.92 701.804,-1085.75 699.088,-1082.69C696.371,-1079.64 692.482,-1075.28 690.445,-1073C688.408,-1070.72 686.026,-1068.02 685.153,-1066.99C684.28,-1065.97 681.423,-1062.74 678.803,-1059.82L674.041,-1054.51L650.694,-1054.5L627.348,-1054.5L622.296,-1060.09ZM413.071,-1088.52C412.342,-1089.57 410.001,-1092.62 407.868,-1095.3L403.989,-1100.17L403.989,-1117.33C403.989,-1134.25 404,-1134.5 404.7,-1134.69C405.092,-1134.79 414.14,-1134.89 424.809,-1134.91L444.206,-1134.94L444.206,-1100.08L441.5,-1096.61C440.012,-1094.69 437.617,-1091.66 436.179,-1089.87L433.564,-1086.61L414.396,-1086.61L413.071,-1088.52ZM255.428,-1105.39C249.387,-1112.25 241.879,-1120.62 240.65,-1121.87C240.163,-1122.36 238.497,-1124.19 236.948,-1125.94C235.4,-1127.69 233.403,-1129.91 232.511,-1130.88C231.619,-1131.85 230.189,-1133.44 229.333,-1134.4C228.477,-1135.38 227.608,-1136.33 227.402,-1136.52C227.196,-1136.72 225.598,-1138.46 223.851,-1140.4C217.678,-1147.26 207.98,-1157.79 200.813,-1165.4C196.822,-1169.64 192.724,-1174.03 191.705,-1175.16L189.853,-1177.21L189.853,-1266.88L192.058,-1266.93C193.271,-1266.97 197.12,-1267.03 200.613,-1267.07C204.105,-1267.12 207.638,-1267.17 208.462,-1267.19L209.962,-1267.23L209.962,-1283.32L215.871,-1289.65C219.121,-1293.13 224.283,-1298.79 227.342,-1302.22C230.401,-1305.66 233.06,-1308.57 233.251,-1308.68C233.477,-1308.82 233.598,-1296.62 233.598,-1273.49L233.598,-1238.09L234.863,-1236.87C236.28,-1235.51 245.207,-1225.55 256.654,-1212.55L264.267,-1203.9L264.295,-1151.34L268.389,-1146.58C270.64,-1143.96 273.704,-1140.47 275.196,-1138.82C276.688,-1137.17 279.317,-1134.23 281.038,-1132.29C282.759,-1130.35 284.473,-1128.42 284.846,-1128C285.682,-1127.06 285.672,-1127.04 282.106,-1123.1C278.631,-1119.27 275.796,-1116.11 274.167,-1114.28C273.488,-1113.51 270.712,-1110.43 267.998,-1107.42C265.285,-1104.41 262.601,-1101.44 262.033,-1100.81C261.466,-1100.17 260.884,-1099.66 260.739,-1099.66C260.595,-1099.66 258.205,-1102.24 255.429,-1105.39L255.428,-1105.39ZM584.413,-1102.39C583.113,-1103.9 581.153,-1106.08 580.058,-1107.24C578.962,-1108.41 577.038,-1110.55 575.782,-1112.01C574.527,-1113.46 573.411,-1114.73 573.303,-1114.83C573.196,-1114.92 571.474,-1116.91 569.477,-1119.24C567.481,-1121.57 565.049,-1124.3 564.073,-1125.32L562.298,-1127.17L564.371,-1129.54C565.511,-1130.84 568.202,-1133.82 570.35,-1136.15C572.499,-1138.49 576.349,-1142.77 578.905,-1145.66L583.553,-1150.91L583.573,-1203.9L586.598,-1207.43C588.261,-1209.37 590.288,-1211.67 591.1,-1212.55C591.913,-1213.42 593.997,-1215.8 595.73,-1217.84C598.316,-1220.88 606.534,-1230.24 607.19,-1230.89C607.287,-1230.99 608.154,-1232.02 609.116,-1233.18C610.078,-1234.35 611.228,-1235.68 611.672,-1236.14L612.479,-1236.98L612.569,-1273.17L612.658,-1309.36L615.631,-1306.02C617.266,-1304.18 619.647,-1301.5 620.923,-1300.06C622.198,-1298.62 624.131,-1296.47 625.217,-1295.3C626.303,-1294.12 629.121,-1290.99 631.479,-1288.34L635.765,-1283.52L635.765,-1275.38C635.765,-1270.89 635.805,-1267.21 635.853,-1267.2C635.902,-1267.18 640.307,-1267.09 645.643,-1266.99C650.979,-1266.89 655.367,-1266.79 655.394,-1266.76C655.536,-1266.6 655.752,-1178.69 655.613,-1177.74C655.497,-1176.95 654.43,-1175.46 652.045,-1172.75C642.703,-1162.13 641.035,-1160.25 638.063,-1156.99C636.298,-1155.05 634.385,-1152.89 633.81,-1152.19C632.322,-1150.38 621.797,-1138.39 617.461,-1133.55C615.446,-1131.31 612.668,-1128.2 611.287,-1126.66C609.907,-1125.11 607.263,-1122.17 605.412,-1120.13C601.596,-1115.92 592.946,-1106.12 589.629,-1102.24C588.411,-1100.82 587.271,-1099.66 587.096,-1099.66C586.921,-1099.66 585.714,-1100.89 584.414,-1102.39L584.413,-1102.39ZM381.736,-1112.66C381.72,-1118.61 381.675,-1125.82 381.635,-1128.69C381.595,-1131.56 381.678,-1134.09 381.818,-1134.32C382,-1134.61 384.183,-1134.74 389.336,-1134.76C393.33,-1134.78 397.15,-1134.73 397.824,-1134.65L399.05,-1134.51L399.05,-1101.92L390.407,-1101.89L381.764,-1101.85L381.736,-1112.66ZM449.145,-1101.87L449.145,-1134.93L457.139,-1134.89C461.536,-1134.86 465.425,-1134.77 465.782,-1134.67C466.4,-1134.51 466.431,-1133.73 466.431,-1118.21L466.431,-1101.93L457.788,-1101.9L449.145,-1101.87ZM204.631,-1118.78C199.497,-1124.53 190.485,-1134.77 186.732,-1139.11C185.112,-1140.99 181.829,-1144.74 179.435,-1147.46C177.041,-1150.18 173.763,-1153.92 172.149,-1155.79C170.536,-1157.65 166.12,-1162.71 162.337,-1167.04C158.553,-1171.37 154.822,-1175.66 154.046,-1176.59C151.592,-1179.51 142.912,-1189.24 142.563,-1189.45C142.354,-1189.58 142.228,-1211.01 142.228,-1246.39L142.228,-1303.13L143.551,-1304.73C147.121,-1309.06 161.452,-1325.03 161.618,-1324.86C161.722,-1324.76 161.819,-1306.05 161.833,-1283.3C161.858,-1243.01 161.877,-1241.9 162.539,-1241.03C163.114,-1240.28 173.054,-1228.88 182.357,-1218.31L184.914,-1215.41L184.914,-1175.45L188.707,-1171.16C190.793,-1168.81 194.559,-1164.65 197.076,-1161.93C199.593,-1159.21 202.451,-1156.12 203.426,-1155.06C204.401,-1154 206.469,-1151.77 208.021,-1150.12C209.574,-1148.46 212.193,-1145.6 213.842,-1143.76C215.491,-1141.92 217.952,-1139.22 219.31,-1137.76C225.737,-1130.84 236.927,-1118.45 238.151,-1116.89L238.888,-1115.95L223.064,-1115.91L207.239,-1115.86L204.631,-1118.78ZM180.681,-1219.43C180.681,-1219.52 180.602,-1219.6 180.505,-1219.6C180.408,-1219.6 180.328,-1219.52 180.328,-1219.43C180.328,-1219.33 180.407,-1219.25 180.505,-1219.25C180.602,-1219.25 180.681,-1219.33 180.681,-1219.43ZM313.855,-1116.18L302.566,-1116.3L299.138,-1120.24C297.252,-1122.4 293.919,-1126.17 291.729,-1128.62C282.355,-1139.07 272.279,-1150.46 270.594,-1152.5L269.315,-1154.05L269.281,-1193.93L269.246,-1233.82L271.089,-1235.81C272.103,-1236.91 274.121,-1239.23 275.573,-1240.97C278.282,-1244.2 282.315,-1248.92 282.64,-1249.24C282.74,-1249.33 283.843,-1250.64 285.09,-1252.14C286.337,-1253.63 287.4,-1254.82 287.452,-1254.77C287.504,-1254.71 287.583,-1231.53 287.628,-1203.25L287.709,-1151.83L290.909,-1148.23C293.803,-1144.98 298.398,-1139.75 304.294,-1133C307.638,-1129.17 310.602,-1125.97 311.065,-1125.68C311.297,-1125.54 324.957,-1125.41 341.422,-1125.41L371.358,-1125.4L371.275,-1121.08C371.229,-1118.71 371.19,-1116.59 371.187,-1116.38C371.177,-1115.99 341.695,-1115.89 313.856,-1116.18L313.855,-1116.18ZM476.662,-1120.48C476.662,-1124.26 476.751,-1125.02 477.22,-1125.2C477.527,-1125.32 491.06,-1125.41 507.294,-1125.42L536.81,-1125.42L539.809,-1128.82C541.458,-1130.69 542.969,-1132.39 543.167,-1132.61C543.364,-1132.82 545.904,-1135.68 548.811,-1138.98C551.718,-1142.27 555.446,-1146.48 557.095,-1148.33L560.094,-1151.7L560.094,-1203.11C560.094,-1237.23 560.212,-1254.48 560.446,-1254.41C560.786,-1254.29 568.953,-1244.82 573.426,-1239.36C574.617,-1237.9 576.269,-1235.99 577.098,-1235.12L578.606,-1233.53L578.61,-1193.84C578.614,-1156.97 578.571,-1154.08 578.012,-1153.27C577.441,-1152.44 575.088,-1149.8 557.31,-1129.99C553.216,-1125.43 549.31,-1121.08 548.63,-1120.31C547.95,-1119.54 546.825,-1118.29 546.131,-1117.52L544.868,-1116.13L476.661,-1115.97L476.662,-1120.48ZM544.042,-1131.94C544.042,-1132.04 543.963,-1132.12 543.866,-1132.12C543.769,-1132.12 543.689,-1132.04 543.689,-1131.94C543.689,-1131.84 543.769,-1131.76 543.866,-1131.76C543.963,-1131.76 544.042,-1131.84 544.042,-1131.94ZM608.953,-1116.1C608.953,-1116.35 611.277,-1119.1 615.478,-1123.83C617.031,-1125.58 619.413,-1128.27 620.771,-1129.81C622.129,-1131.35 624.669,-1134.22 626.416,-1136.19C628.162,-1138.16 632.21,-1142.76 635.412,-1146.42C638.613,-1150.08 643.219,-1155.31 645.648,-1158.03C648.076,-1160.75 652.113,-1165.36 654.619,-1168.27C657.125,-1171.18 659.469,-1173.9 659.828,-1174.31C660.446,-1175.01 660.479,-1176.08 660.467,-1195.12L660.454,-1215.19L663.511,-1218.72C668.088,-1224 682.031,-1239.78 682.9,-1240.66L683.658,-1241.42L683.662,-1283.17C683.664,-1306.18 683.802,-1324.87 683.969,-1324.82C684.521,-1324.66 684.611,-1324.57 686.741,-1322.09C688.605,-1319.92 692.669,-1315.32 699.766,-1307.32C700.945,-1305.99 702.197,-1304.55 702.549,-1304.12C703.158,-1303.36 703.193,-1300.71 703.314,-1246.63L703.441,-1189.95L702.015,-1188.28C699.854,-1185.76 696.912,-1182.38 693.97,-1179.04C692.514,-1177.39 689.895,-1174.37 688.152,-1172.33C686.408,-1170.29 684.239,-1167.83 683.332,-1166.86C682.425,-1165.89 681.312,-1164.62 680.86,-1164.05C679.76,-1162.64 663.918,-1144.46 653.839,-1133.05C651.072,-1129.92 646.637,-1124.77 643.983,-1121.62L639.159,-1115.89L624.056,-1115.89C615.749,-1115.89 608.953,-1115.99 608.953,-1116.1L608.953,-1116.1ZM333.434,-1136.64C332.917,-1136.72 331.895,-1137.54 330.964,-1138.61C327.41,-1142.71 322.526,-1148.27 320.122,-1150.96L317.569,-1153.81L317.549,-1219.96L326.192,-1219.92L327.698,-1218.09C328.527,-1217.08 329.676,-1215.72 330.251,-1215.06C330.826,-1214.41 331.208,-1213.73 331.1,-1213.56C330.991,-1213.38 331.09,-1213.28 331.327,-1213.33C331.761,-1213.43 334.723,-1210.26 343.248,-1200.55C345.89,-1197.55 348.274,-1194.86 348.546,-1194.57C349.001,-1194.1 362.045,-1179.54 368.424,-1172.38L371.144,-1169.33L371.17,-1136.7L358.47,-1136.7L358.444,-1149.66C358.43,-1156.8 358.417,-1163.54 358.415,-1164.65C358.415,-1166.46 358.273,-1166.84 357.04,-1168.39C356.285,-1169.34 355.782,-1170.23 355.922,-1170.37C356.063,-1170.51 356.006,-1170.57 355.797,-1170.51C355.588,-1170.44 354.635,-1171.26 353.68,-1172.33C352.725,-1173.4 351.059,-1175.22 349.978,-1176.39C348.896,-1177.55 346.054,-1180.73 343.663,-1183.44C341.271,-1186.16 338.58,-1189.18 337.683,-1190.15C336.786,-1191.12 334.959,-1193.18 333.623,-1194.73C330.145,-1198.77 327.862,-1201.26 327.628,-1201.26C327.517,-1201.26 327.426,-1191.68 327.426,-1179.97L327.426,-1158.67L330.036,-1155.63C332.634,-1152.6 344.131,-1139.83 345.726,-1138.2C346.193,-1137.73 346.427,-1137.22 346.255,-1137.06C345.937,-1136.75 334.989,-1136.4 333.423,-1136.64L333.434,-1136.64ZM346.134,-1137.23C346.134,-1137.33 346.055,-1137.41 345.957,-1137.41C345.86,-1137.41 345.781,-1137.33 345.781,-1137.23C345.781,-1137.13 345.86,-1137.05 345.957,-1137.05C346.054,-1137.05 346.134,-1137.13 346.134,-1137.23ZM476.662,-1152.88L476.662,-1169.06L482.022,-1175.19C489.286,-1183.51 497.453,-1192.68 512.116,-1209C514.832,-1212.02 518.082,-1215.72 519.337,-1217.23L521.619,-1219.96L525.952,-1219.96C528.334,-1219.96 530.299,-1219.92 530.317,-1219.87C530.336,-1219.82 530.426,-1205.06 530.518,-1187.06L530.686,-1154.34L526.159,-1149.32C521.011,-1143.6 517.053,-1139.08 515.946,-1137.67L515.189,-1136.7L508.273,-1136.7C504.468,-1136.7 501.356,-1136.79 501.356,-1136.9C501.356,-1137.12 503.649,-1139.75 509.294,-1146.02C511.234,-1148.17 514.529,-1151.87 516.616,-1154.23L520.411,-1158.52L520.321,-1180.09L520.23,-1201.65L517.407,-1198.4C514.17,-1194.66 511.887,-1192.11 509.097,-1189.09C508.018,-1187.92 506.51,-1186.24 505.745,-1185.34C504.98,-1184.44 501.577,-1180.57 498.181,-1176.73C494.786,-1172.9 491.412,-1169.05 490.685,-1168.18L489.362,-1166.61L489.362,-1136.7L476.662,-1136.7L476.662,-1152.88ZM480.189,-1171.8C480.189,-1171.9 480.11,-1171.98 480.013,-1171.98C479.916,-1171.98 479.837,-1171.9 479.837,-1171.8C479.837,-1171.7 479.916,-1171.63 480.013,-1171.63C480.11,-1171.63 480.189,-1171.7 480.189,-1171.8Z" style="fill:rgb(140,26,26);fill-rule:nonzero;"/>
    </g>
</svg>
